<?xml version="1.0" encoding="iso-8859-1"?>
<!-- Generator: Adobe Illustrator 19.0.0, SVG Export Plug-In . SVG Version: 6.00 Build 0)  -->
<svg version="1.1" id="Capa_1" xmlns="http://www.w3.org/2000/svg" xmlns:xlink="http://www.w3.org/1999/xlink" x="0px" y="0px"
	 viewBox="0 0 511.96 511.96" style="enable-background:new 0 0 511.96 511.96;" xml:space="preserve">
<g>
	<g>
		<g>
			<path d="M295.056,110.305c0.006,13.956,5.597,27.33,15.526,37.138c3.453,3.41,9.012,3.393,12.443-0.039
				c3.432-3.432,3.449-8.99,0.039-12.443c-6.622-6.495-10.353-15.38-10.353-24.655s3.731-18.161,10.353-24.655
				c21.254-21.254,11.315-54.134-8.828-74.276c-3.453-3.41-9.012-3.393-12.443,0.039c-3.432,3.432-3.449,8.99-0.039,12.443
				c14.09,14.09,21.974,36.164,8.828,49.31C300.653,82.975,295.062,96.348,295.056,110.305z"/>
			<path d="M197.952,154.443c0.006,13.956,5.597,27.33,15.526,37.138c3.453,3.41,9.012,3.393,12.443-0.039
				c3.432-3.432,3.449-8.99,0.039-12.443c-6.622-6.494-10.353-15.38-10.353-24.655s3.731-18.161,10.353-24.655
				c21.254-21.254,11.315-54.134-8.828-74.276c-3.453-3.41-9.012-3.393-12.443,0.039c-3.432,3.432-3.449,8.99-0.039,12.443
				c14.091,14.091,21.974,36.164,8.828,49.31C203.549,127.113,197.958,140.486,197.952,154.443z"/>
			<path d="M105.47,101.477c0.006,13.956,5.597,27.33,15.526,37.138c2.225,2.253,5.487,3.142,8.547,2.329s5.451-3.203,6.264-6.264
				s-0.075-6.322-2.328-8.547c-6.622-6.494-10.353-15.38-10.353-24.655s3.731-18.161,10.353-24.655
				c21.254-21.254,11.315-54.134-8.828-74.276c-3.453-3.41-9.012-3.393-12.443,0.039c-3.432,3.432-3.449,8.99-0.039,12.443
				c14.091,14.091,21.974,36.164,8.828,49.31C111.067,74.147,105.476,87.521,105.47,101.477z"/>
			<path d="M415.053,98.299c13.859-34.604,51.377-58.527,72.563-69.738c2.498-1.339,3.628-4.314,2.648-6.974
				c-0.521-1.519-1.636-2.761-3.09-3.443c-1.477-0.69-3.177-0.722-4.679-0.088c-31.476,12.808-58.662,34.3-78.389,61.97
				c-11.871,20.895-19.716,43.831-23.128,67.619c-4.55,25.16-7.587,50.57-9.092,76.094c-1.148,18.097-1.501,32.132-1.589,37.959
				c9.181-0.53,18.008-1.059,26.483-1.766C397.045,236.892,398.81,138.906,415.053,98.299z"/>
			<path d="M414.523,258.52c24.592-1.383,48.987-5.197,72.828-11.388c-23.689-6.181-47.94-9.967-72.386-11.299
				C414.7,245.543,414.523,253.4,414.523,258.52z"/>
			<path d="M406.578,276.969c-13.683,1.148-28.69,2.119-44.403,2.913c-34.604,1.677-70.444,2.56-106.637,2.56
				c-58.65,0.372-117.281-2.221-175.669-7.768c-20.655-1.613-41.11-5.189-61.087-10.681
				c13.33,114.935,115.818,203.829,236.756,203.829c54.83,0.65,108.368-16.649,152.452-49.258c0.528-0.517,1.121-0.962,1.766-1.324
				c48.478-36.85,78.846-92.702,83.421-153.423C464.836,271.148,435.818,275.556,406.578,276.969z M68.91,320.892
				c-0.844,2.185-2.523,3.946-4.665,4.893c-1.107,0.514-2.311,0.785-3.531,0.794c-3.496,0.014-6.675-2.025-8.121-5.208
				c-2.648-6.003-5.12-12.182-7.15-18.361c-1.011-2.981-0.354-6.275,1.722-8.64s5.258-3.443,8.344-2.826
				c3.087,0.617,5.609,2.834,6.617,5.816c1.942,5.65,4.149,11.299,6.621,16.772C69.696,316.276,69.754,318.707,68.91,320.892z
				 M193.304,432.423c-1.228,3.586-4.596,5.997-8.386,6.003c-0.958-0.01-1.909-0.159-2.825-0.441
				c-43.372-14.845-81.126-42.675-108.138-79.713c-1.868-2.554-2.225-5.912-0.935-8.801s4.027-4.867,7.175-5.182
				c3.148-0.315,6.224,1.079,8.061,3.655c24.893,34.018,59.615,59.589,99.487,73.269
				C192.359,422.79,194.841,427.793,193.304,432.423z"/>
			<path d="M255.539,485.477c-53.721,0.004-106.132-16.583-150.069-47.492v38.665c0,12.006,52.966,35.31,150.069,35.31
				s150.069-23.305,150.069-35.31v-34.692C360.922,470.839,308.743,485.971,255.539,485.477z"/>
			<path d="M352.642,262.58c0.088-4.679,0.265-15.89,1.059-30.897c-31.338-1.412-64.177-2.207-98.163-2.207
				c-124.116,0-207.36,9.357-232.43,17.655c25.07,8.298,108.315,17.655,232.43,17.655
				C288.465,264.787,321.039,263.993,352.642,262.58z"/>
		</g>
	</g>
</g>
<g>
</g>
<g>
</g>
<g>
</g>
<g>
</g>
<g>
</g>
<g>
</g>
<g>
</g>
<g>
</g>
<g>
</g>
<g>
</g>
<g>
</g>
<g>
</g>
<g>
</g>
<g>
</g>
<g>
</g>
</svg>
