<?xml version="1.0" encoding="iso-8859-1"?>
<!-- Generator: Adobe Illustrator 19.0.0, SVG Export Plug-In . SVG Version: 6.00 Build 0)  -->
<svg version="1.1" id="Capa_1" xmlns="http://www.w3.org/2000/svg" xmlns:xlink="http://www.w3.org/1999/xlink" x="0px" y="0px"
	 viewBox="0 0 511.993 511.993" style="enable-background:new 0 0 511.993 511.993;" xml:space="preserve">
<path style="fill:#FFA800;" d="M494.93,238.927c0,0-0.158,7.509-0.158,8.533c-2.933,119.861-101.823,215.016-221.709,213.333
	c-116.559,0-212.12-93.355-221.154-211.968c-0.317-3.84-0.713-9.899-0.713-9.899"/>
<path style="fill:#FFFFFF;" d="M460.797,238.927c0,0-0.158,7.509-0.158,8.533c-2.933,119.861-101.823,215.016-221.708,213.333
	c-116.559,0-212.12-93.355-221.154-211.968c-0.317-3.84-0.713-9.899-0.713-9.899"/>
<path style="fill:#FFA800;" d="M409.597,410.361v50.432c0,23.552-61.137,42.667-136.533,42.667s-136.533-19.115-136.533-42.667
	v-54.016"/>
<path style="fill:#FFFFFF;" d="M375.463,410.361v50.432c0,23.552-61.137,42.667-136.533,42.667s-136.533-19.115-136.533-42.667
	v-54.016"/>
<g>
	<path style="fill:#FEDD0A;" d="M469.33,238.927c0,0-0.152,7.509-0.152,8.533c-4.267,123.136-98.057,213.333-213.181,213.333
		c-112.076,0-203.962-93.355-212.648-211.968c-0.305-3.84-0.686-9.899-0.686-9.899"/>
	<path style="fill:#FEDD0A;" d="M383.997,410.361v50.432c0,23.552-57.316,42.667-128,42.667s-128-19.115-128-42.667v-54.016"/>
</g>
<path style="fill:#FFA800;" d="M410.221,218.703c51.525,4.608,84.709,11.947,84.709,20.224s-33.417,15.616-85.253,20.309
	c-12.046,1.109-25.024,2.048-38.857,2.816c-28.366,1.536-59.995,2.475-93.49,2.475c-120.146,0-217.6-11.435-217.6-25.6
	s97.454-25.6,217.6-25.6c33.883,0,66.057,0.939,94.656,2.56"/>
<path style="fill:#FFFFFF;" d="M367.555,218.703c51.525,4.608,84.709,11.947,84.709,20.224s-33.417,15.616-85.253,20.309
	c-12.046,1.109-25.024,2.048-38.857,2.816c-28.366,1.536-59.995,2.475-93.49,2.475c-120.146,0-217.6-11.435-217.6-25.6
	s97.454-25.6,217.6-25.6c33.883,0,66.057,0.939,94.656,2.56"/>
<path style="fill:#FEDD0A;" d="M381.071,218.703c48.494,4.608,79.726,11.947,79.726,20.224s-31.451,15.616-80.238,20.309
	c-11.337,1.109-23.552,2.048-36.571,2.816c-26.697,1.536-56.466,2.475-87.991,2.475c-113.079,0-204.8-11.435-204.8-25.6
	s91.721-25.6,204.8-25.6c31.89,0,62.171,0.939,89.088,2.56"/>
<g>
	<path style="fill:#FFA800;" d="M358.397,255.993c0,0,0-132.158,34.133-183.358c19.976-28.14,47.571-49.992,79.541-62.987
		c3.638-1.539,7.753-1.487,11.352,0.143c3.598,1.63,6.352,4.689,7.595,8.438l0.003,0.008c2.213,6.524-0.624,13.691-6.703,16.932
		c-17.963,9.514-53.627,31.669-66.186,63.067c-17.067,42.667-17.067,157.758-17.067,157.758"/>
	<path style="fill:#FFA800;" d="M60.977,290.179c1.949,5.792,4.168,11.461,6.656,17.007"/>
</g>
<path d="M21.155,281.593c-4.082-0.005-7.59-2.901-8.367-6.908c-1.612-8.317-2.768-16.715-3.462-25.158
	c-0.341-3.846-0.775-10.004-0.775-10.004l17.025-1.192c0,0.017,0.417,5.967,0.754,9.742c0.644,7.84,1.715,15.639,3.209,23.362
	c0.432,2.221-0.036,4.523-1.302,6.399c-1.266,1.876-3.226,3.171-5.448,3.601C22.251,281.541,21.703,281.594,21.155,281.593
	L21.155,281.593z"/>
<path d="M255.997,469.327c-89.24,0.551-171.961-46.662-216.871-123.779c-1.517-2.649-1.504-5.906,0.034-8.542
	c1.538-2.636,4.367-4.251,7.42-4.233c3.052,0.017,5.863,1.664,7.371,4.317c41.866,71.801,118.933,115.731,202.046,115.171
	c126.717,0,225.696-88.187,230.238-205.129c-0.009-0.721,0.167-8.4,0.167-8.4l17.058,0.392c0,0.004-0.167,7.337-0.167,8.337
	C498.384,374.085,392.072,469.327,255.997,469.327z"/>
<path d="M29.863,315.727c-1.121,0.03-2.232-0.204-3.246-0.683c-1.032-0.434-1.983-1.04-2.813-1.791
	c-0.772-0.816-1.382-1.772-1.796-2.817c-0.906-2.068-0.906-4.42,0-6.487c0.413-1.044,1.023-1.999,1.796-2.813
	c0.828-0.754,1.78-1.362,2.813-1.796c3.18-1.33,6.848-0.622,9.305,1.796c0.752,0.83,1.358,1.781,1.792,2.813
	c0.438,1.027,0.67,2.13,0.683,3.246c-0.034,2.259-0.918,4.422-2.475,6.059C34.285,314.809,32.122,315.692,29.863,315.727z"/>
<path d="M187.73,423.852c-0.942,0-1.877-0.158-2.767-0.467c-41.91-14.363-78.395-41.255-104.516-77.038
	c-1.808-2.472-2.153-5.722-0.903-8.518c1.249-2.796,3.9-4.708,6.947-5.011c3.047-0.303,6.023,1.05,7.798,3.546
	c24.05,32.925,57.635,57.667,96.208,70.879c3.945,1.354,6.333,5.361,5.648,9.476C195.46,420.833,191.901,423.85,187.73,423.852
	L187.73,423.852z"/>
<path d="M67.638,315.722c-3.364,0-6.415-1.976-7.792-5.046c-2.6-5.808-4.942-11.788-6.958-17.771
	c-1.504-4.467,0.898-9.307,5.365-10.81c4.467-1.504,9.307,0.898,10.81,5.365c1.842,5.467,3.979,10.929,6.358,16.237
	c1.179,2.64,0.942,5.697-0.629,8.124S70.53,315.717,67.638,315.722L67.638,315.722z"/>
<path d="M401.063,264.527c-4.713,0-8.533-3.821-8.533-8.533c0-4.767,0.2-117.238,17.675-160.929
	c13.383-33.454,49.675-56.613,70.121-67.437c2.614-1.458,3.633-4.705,2.32-7.395s-4.499-3.885-7.257-2.721
	C444.967,29.87,418.69,50.632,399.63,77.37c-32.304,48.454-32.7,177.329-32.7,178.625c0,4.713-3.82,8.533-8.533,8.533l0,0
	c-4.713,0-8.533-3.821-8.533-8.533c0-5.5,0.404-135.35,35.567-188.092c20.921-29.515,49.827-52.451,83.325-66.116
	c11.173-4.709,24.075,0.192,29.303,11.132s0.938,24.057-9.745,29.793c-14.796,7.834-50.479,29.238-62.258,58.696
	c-16.271,40.666-16.458,153.454-16.458,154.587C409.597,260.706,405.776,264.527,401.063,264.527z"/>
<path d="M315.238,145.06c-2.264,0.003-4.435-0.897-6.033-2.5c-9.603-9.478-15.008-22.408-15.008-35.9s5.405-26.422,15.008-35.9
	c12.708-12.708,5.087-34.046-8.533-47.667c-3.288-3.34-3.267-8.706,0.047-12.019s8.68-3.335,12.019-0.047
	c19.471,19.471,29.079,51.254,8.533,71.8c-6.401,6.278-10.008,14.867-10.008,23.833s3.607,17.555,10.008,23.833
	c2.44,2.44,3.169,6.11,1.849,9.298C321.8,142.98,318.689,145.059,315.238,145.06L315.238,145.06z"/>
<path d="M221.372,187.727c-2.264,0.003-4.435-0.897-6.033-2.5c-9.603-9.478-15.008-22.408-15.008-35.9
	c0-13.492,5.405-26.422,15.008-35.9c12.708-12.708,5.087-34.046-8.533-47.667c-3.288-3.34-3.267-8.706,0.047-12.019
	s8.68-3.335,12.019-0.047c19.471,19.471,29.079,51.254,8.533,71.8c-6.401,6.278-10.008,14.867-10.008,23.833
	s3.607,17.555,10.008,23.833c2.44,2.441,3.169,6.11,1.849,9.298C227.933,185.647,224.823,187.726,221.372,187.727L221.372,187.727z"
	/>
<path d="M131.972,136.527c-2.264,0.003-4.435-0.897-6.033-2.5c-9.603-9.478-15.008-22.408-15.008-35.9s5.405-26.422,15.008-35.9
	c12.708-12.708,5.088-34.046-8.533-47.667c-3.288-3.34-3.267-8.706,0.047-12.019c3.314-3.314,8.68-3.335,12.019-0.047
	c19.471,19.471,29.079,51.254,8.533,71.8c-6.401,6.278-10.008,14.867-10.008,23.833s3.607,17.555,10.008,23.833
	c2.44,2.44,3.169,6.11,1.849,9.298C138.533,134.447,135.423,136.526,131.972,136.527L131.972,136.527z"/>
<path d="M255.997,511.993c-80.571,0-162.133-17.587-162.133-51.2v-54.017c0-4.713,3.821-8.533,8.533-8.533
	c4.713,0,8.533,3.82,8.533,8.533v54.017c0,11.583,51.204,34.133,145.067,34.133s145.067-22.55,145.067-34.133V410.36
	c0-4.713,3.821-8.533,8.533-8.533c4.713,0,8.533,3.821,8.533,8.533v50.433C418.13,494.406,336.567,511.993,255.997,511.993z"/>
<path d="M255.997,273.06c-56.706,0.35-113.394-2.166-169.846-7.538C14.522,257.855,8.53,248.18,8.53,238.926
	s5.992-18.929,77.621-26.596c56.452-5.371,113.14-7.887,169.846-7.537c36.221,0,71.342,0.867,104.379,2.571
	c3.051,0.149,5.789,1.917,7.18,4.637c1.391,2.719,1.222,5.975-0.442,8.535c-1.665,2.561-4.571,4.037-7.621,3.87
	c-32.742-1.687-67.567-2.546-103.496-2.546c-119.942,0-200.488,9.079-224.704,17.067c24.217,7.987,104.763,17.067,224.704,17.067
	c34.708,0,69.104-0.829,102.233-2.467c15.004-0.754,29.263-1.696,42.375-2.796c26.815-1.227,53.435-5.187,79.446-11.817
	c-25.804-6.598-52.218-10.521-78.825-11.708c-4.697-0.382-8.194-4.499-7.813-9.196c0.382-4.697,4.499-8.194,9.196-7.812
	c100.854,8.212,100.854,21.054,100.854,28.729c0,8.146,0,20.45-101.446,28.812c-13.283,1.113-27.738,2.067-42.938,2.833
	C325.663,272.222,290.984,273.06,255.997,273.06z"/>
<g>
</g>
<g>
</g>
<g>
</g>
<g>
</g>
<g>
</g>
<g>
</g>
<g>
</g>
<g>
</g>
<g>
</g>
<g>
</g>
<g>
</g>
<g>
</g>
<g>
</g>
<g>
</g>
<g>
</g>
</svg>
